# xmcd
#
# Track frame offsets:
#	150
#	15725
#	33975
#	51750
#	63575
#	74250
#	88575
#	101325
#	116125
#	129400
#	143975
#	163700
#	174750
#	185650
#	201975
#	219525
#
# Disc length: 3206 seconds
#
# Revision: 1
# Processed by: cddbd v1.5.1PL0 Copyright (c) Steve Scherf et al.
# Submitted via: audiograbber 1.81.03
#
DISCID=e60c8410
DTITLE=Various Artist - Die deutsche Schlagerparade Vol 4
DYEAR=1900
DGENRE=Big Band
TTITLE0=Daniel Gerard - Butterfly
TTITLE1=Nighttrain - Urlaubszeit ist die schönste Zeit
TTITLE2=Costa Cordalis - Blumen der Nacht
TTITLE3=Tina York - Wenn Engel reisen, lacht der Himmel
TTITLE4=The Peppers - Pepper Box
TTITLE5=Bernadette offenbach - Baby i love you
TTITLE6=Holger Terry - Das wird ein Festtag für mich
TTITLE7=Costa Cordalis - Die süssen Trauben hängen hoch
TTITLE8=Mary Roos - Das hat die Welt noch nicht erlebt
TTITLE9=Buddy Caine - Blond muss mein Mädchen sein
TTITLE10=Vicky Leandros - Ich bin für Dich da
TTITLE11=Bernd Spier - Cynthia küsst
TTITLE12=Roberto Blanco - Mit Musik und Humor
TTITLE13=Uwe Lenz - Viva L'amore
TTITLE14=Tina Rainford - Charly Boy
TTITLE15=Stefan Waggershausen - Hollywood sieht anders aus am morgen
EXTD=
EXTT0=
EXTT1=
EXTT2=
EXTT3=
EXTT4=
EXTT5=
EXTT6=
EXTT7=
EXTT8=
EXTT9=
EXTT10=
EXTT11=
EXTT12=
EXTT13=
EXTT14=
EXTT15=
PLAYORDER=
